<svg id="레이어_3" data-name="레이어 3" xmlns="http://www.w3.org/2000/svg" viewBox="0 0 457.92 164.75"><defs><style>.cls-1,.cls-2{fill:#1f98fc;}.cls-1{opacity:0.5;}.cls-3{fill:#0d6efd;}</style></defs><g id="레이어_1" data-name="레이어 1"><path class="cls-1" d="M111.18,14l3.51,158.11h-42L70.47,143.7H55.76l-2.47,28.42H10.79L31.76,14ZM69.39,115.67q-3.12-26.86-6.26-66.41-6.29,45.42-7.89,66.41Z" transform="translate(-10.79 -10.69)"/><path class="cls-1" d="M348.54,14H466V45.65H438.53v30h25.68v30.08H438.53v34.77H468.7v31.64H372.41V19.44Z" transform="translate(-10.79 -10.69)"/></g><g id="레이어_2" data-name="레이어 2"><path class="cls-2" d="M101.68,14h41q19.44,0,29.44,3A29.17,29.17,0,0,1,188.3,29.28q6.15,9.22,6.15,29.72,0,13.86-4.35,19.32T173,86.72q14.26,3.23,19.34,10.7t5.08,22.91V135q0,16-3.66,23.74a19.75,19.75,0,0,1-11.67,10.55q-8,2.83-32.82,2.84H101.68Zm41.11,27.05V76.22c1.76-.07,3.12-.1,4.1-.1q6.06,0,7.71-3t1.67-17c0-5-.46-8.41-1.37-10.4a6.53,6.53,0,0,0-3.57-3.76Q149.14,41.16,142.79,41.06Zm0,59.77v44.24q8.69-.3,11.08-2.74t2.4-12V115.57q0-10.16-2.15-12.3T142.79,100.83Z" transform="translate(-10.79 -10.69)"/><path class="cls-3" d="M305.12,82.86H264V55.38q0-12-1.32-15t-5.81-3q-5.08,0-6.45,3.61t-1.36,15.63v73.43q0,11.53,1.36,15c.91,2.35,3,3.52,6.16,3.52s5.06-1.17,6-3.52,1.42-7.87,1.42-16.55V108.74h41.11v6.16q0,24.54-3.47,34.82t-15.33,18q-11.86,7.72-29.25,7.73-18.06,0-29.78-6.55t-15.53-18.11Q208,139.2,208,116V69.77q0-17.08,1.17-25.63a36,36,0,0,1,7-16.46,38.94,38.94,0,0,1,16.11-12.45,58.16,58.16,0,0,1,23.68-4.54q18.16,0,30,7t15.53,17.51q3.7,10.49,3.71,32.62Z" transform="translate(-10.79 -10.69)"/><path class="cls-2" d="M316.87,14h30.76q29.79,0,40.28,2.74t16,9a28.5,28.5,0,0,1,6.83,13.92q1.38,7.66,1.37,30.12v55.37q0,21.3-2,28.47a21.41,21.41,0,0,1-7,11.23,29.12,29.12,0,0,1-12.31,5.67q-7.32,1.61-22.07,1.61H316.87ZM358,41.06v104q8.88,0,10.94-3.57T371,122.12V60.69q0-10.74-.69-13.77a6.48,6.48,0,0,0-3.12-4.44Q364.71,41.06,358,41.06Z" transform="translate(-10.79 -10.69)"/></g></svg>