<svg id="레이어_2_사본_3" data-name="레이어 2 사본 3" xmlns="http://www.w3.org/2000/svg" viewBox="0 0 230.41 164.75"><defs><style>.cls-1{fill:#1f98fc;}.cls-2{fill:#0d6efd;}</style></defs><path class="cls-1" d="M0,3.32H41q19.42,0,29.44,3A29.18,29.18,0,0,1,86.62,18.59q6.15,9.22,6.15,29.72,0,13.86-4.34,19.32T71.29,76q14.25,3.23,19.34,10.69t5.07,22.92V124.3q0,16-3.66,23.74a19.73,19.73,0,0,1-11.67,10.55q-8,2.83-32.81,2.84H0ZM41.11,30.37V65.53c1.76-.07,3.13-.1,4.1-.1q6.06,0,7.72-3t1.66-17c0-4.95-.46-8.41-1.37-10.4a6.54,6.54,0,0,0-3.56-3.76Q47.46,30.47,41.11,30.37Zm0,59.77v44.24q8.7-.3,11.09-2.74t2.39-12V104.88q0-10.16-2.15-12.3T41.11,90.14Z"/><path class="cls-1" d="M135.19,3.32H166q29.79,0,40.29,2.73t16,9A28.39,28.39,0,0,1,229,29q1.36,7.66,1.37,30.12v55.37q0,21.3-2,28.47a21.35,21.35,0,0,1-7,11.23,29,29,0,0,1-12.3,5.66q-7.34,1.62-22.07,1.62H135.19Zm41.12,27.05v104q8.88,0,10.93-3.57t2-19.38V50q0-10.74-.68-13.77a6.52,6.52,0,0,0-3.13-4.44Q183.05,30.37,176.31,30.37Z"/><path class="cls-2" d="M163.45,72.17H122.33V44.69q0-12-1.32-15t-5.81-3q-5.07,0-6.44,3.61T107.39,46v73.43q0,11.53,1.37,15t6.15,3.52c3.06,0,5.06-1.18,6-3.52s1.41-7.87,1.41-16.55V98.05h41.12v6.16q0,24.54-3.47,34.81t-15.33,18q-11.86,7.72-29.25,7.73-18.08,0-29.79-6.55T70.09,140.09q-3.81-11.58-3.81-34.82V59.08q0-17.08,1.17-25.63a35.94,35.94,0,0,1,7-16.46A39,39,0,0,1,90.55,4.54,58.13,58.13,0,0,1,114.23,0q18.17,0,30,7t15.52,17.51q3.72,10.49,3.72,32.62Z"/></svg>